<?xml version="1.0" standalone="no"?>
<!DOCTYPE svg PUBLIC "-//W3C//DTD SVG 20010904//EN"
 "http://www.w3.org/TR/2001/REC-SVG-20010904/DTD/svg10.dtd">
<svg version="1.0" xmlns="http://www.w3.org/2000/svg"
 width="512.000000pt" height="512.000000pt" viewBox="0 0 512.000000 512.000000"
 preserveAspectRatio="xMidYMid meet">
<metadata>
Created by potrace 1.14, written by Peter Selinger 2001-2017
</metadata>
<g transform="translate(0.000000,512.000000) scale(0.100000,-0.100000)"
fill="#000000" stroke="none">
<path d="M2500 4894 c-44 -12 -66 -13 -109 -5 -68 14 -212 14 -281 1 -63 -12
-163 -55 -186 -81 -14 -16 -31 -19 -96 -19 -157 0 -305 -47 -379 -121 -31 -31
-47 -39 -76 -39 -82 -1 -223 -49 -299 -100 -68 -48 -131 -134 -148 -202 -5
-22 -21 -36 -75 -63 -205 -102 -325 -288 -340 -520 -6 -100 -6 -101 -48 -150
-62 -75 -104 -159 -191 -385 -186 -484 -265 -813 -266 -1105 0 -189 11 -240
84 -390 328 -670 906 -1146 1653 -1361 527 -152 1159 -187 1647 -93 632 122
1206 491 1588 1021 35 48 76 117 93 153 53 118 55 151 25 640 -30 493 -43 621
-87 879 -130 755 -378 1253 -706 1415 -38 19 -75 47 -95 72 -96 120 -335 259
-445 259 -13 0 -69 22 -126 50 -158 76 -268 101 -467 106 -105 3 -181 10 -210
19 -120 38 -354 47 -460 19z m363 -123 c21 -5 41 -11 43 -14 3 -3 -7 -29 -22
-58 -17 -34 -27 -71 -28 -102 -1 -42 3 -52 25 -69 41 -31 74 -12 94 55 8 30
29 75 45 100 23 37 36 47 66 53 72 13 323 -25 428 -66 l30 -11 -50 -28 c-69
-41 -136 -102 -178 -165 -43 -65 -47 -108 -12 -131 37 -25 71 -10 106 45 44
69 111 127 188 163 96 46 171 44 273 -5 73 -35 179 -106 179 -120 0 -5 -18 -8
-39 -8 -66 0 -182 -28 -248 -60 -109 -54 -157 -138 -98 -176 30 -19 59 -12
100 26 57 53 130 76 265 86 146 11 244 -25 359 -132 107 -99 215 -273 294
-474 65 -166 65 -178 2 -60 -141 261 -284 414 -460 496 -99 46 -155 54 -184
25 -44 -44 -17 -91 67 -115 367 -103 659 -698 811 -1656 47 -298 64 -464 65
-650 1 -171 0 -176 -26 -233 -15 -32 -66 -109 -112 -170 -360 -478 -878 -808
-1451 -927 -522 -108 -1222 -56 -1770 133 -613 211 -1096 627 -1404 1208 -74
141 -91 207 -91 367 0 205 48 449 150 766 51 157 172 472 211 548 77 152 229
268 409 314 85 21 228 15 323 -16 63 -19 71 -20 92 -6 52 34 39 86 -28 116
-161 71 -394 61 -567 -23 -36 -18 -68 -33 -72 -35 -15 -7 -8 48 13 105 57 154
186 270 337 302 103 22 184 6 271 -54 54 -37 77 -42 104 -22 32 24 31 60 -5
105 -58 73 -118 105 -236 125 l-72 12 31 38 c55 67 139 107 266 128 67 11 73
10 107 -11 57 -35 115 -86 158 -140 34 -42 45 -50 74 -50 41 0 70 36 60 75 -7
26 -140 168 -186 199 -24 15 -24 16 -5 30 37 28 110 47 223 58 l113 11 34 -33
c19 -18 44 -54 56 -79 25 -53 34 -61 71 -61 18 0 33 8 43 24 23 35 11 85 -37
151 l-39 55 34 15 c78 32 248 43 311 19 9 -4 15 -32 18 -101 5 -85 8 -99 28
-115 29 -24 55 -23 81 3 19 19 20 30 17 120 l-3 99 35 6 c19 3 40 7 45 10 16
6 226 -6 268 -15z"/>
<path d="M2475 4324 c-341 -35 -539 -102 -674 -229 -100 -93 -126 -197 -75
-305 142 -307 929 -433 1460 -235 318 120 420 350 237 533 -95 95 -282 175
-495 212 -112 19 -369 33 -453 24z m380 -139 c247 -35 454 -127 516 -229 48
-79 0 -162 -137 -239 -246 -138 -715 -172 -1061 -77 -230 63 -371 180 -342
284 30 108 250 219 514 260 121 18 385 19 510 1z"/>
<path d="M3887 3872 c-18 -19 -22 -59 -9 -78 4 -6 41 -28 82 -50 99 -52 204
-155 252 -249 99 -195 137 -416 145 -855 7 -395 -14 -693 -84 -1202 -26 -192
-27 -197 -9 -217 19 -21 50 -27 80 -15 23 9 33 51 60 254 134 987 106 1737
-80 2090 -69 133 -193 254 -322 315 -62 30 -93 32 -115 7z"/>
<path d="M1420 3613 c-103 -18 -242 -79 -362 -160 -246 -165 -485 -468 -690
-877 -76 -151 -168 -364 -168 -388 0 -25 36 -58 63 -58 35 0 52 25 108 156
230 545 549 964 849 1118 98 50 136 64 240 85 63 14 77 20 90 44 13 24 13 30
0 55 -13 23 -23 27 -60 28 -25 1 -56 0 -70 -3z"/>
<path d="M3722 3494 c-27 -19 -29 -57 -3 -121 45 -114 56 -205 56 -453 0 -270
-10 -351 -81 -665 -96 -425 -144 -791 -170 -1303 -6 -119 -5 -134 11 -152 21
-24 67 -26 89 -5 18 19 22 48 36 295 25 427 64 715 150 1105 27 121 53 247 60
280 19 106 40 337 40 456 0 242 -60 520 -122 563 -28 20 -38 20 -66 0z"/>
<path d="M2022 3404 c-406 -89 -802 -503 -1151 -1204 -129 -260 -331 -759
-331 -819 0 -41 82 -70 108 -38 5 6 26 59 47 117 112 315 282 695 415 925 319
554 668 867 1012 909 62 8 88 29 88 72 0 53 -62 66 -188 38z"/>
<path d="M2624 3279 c-95 -62 -208 -156 -285 -236 -344 -358 -667 -959 -917
-1708 -133 -400 -142 -447 -80 -469 51 -18 69 7 112 155 111 377 285 828 441
1139 232 462 517 829 781 1003 121 79 137 104 94 147 -31 31 -61 24 -146 -31z"/>
<path d="M3210 3282 c-16 -13 -23 -34 -30 -87 -23 -175 -95 -374 -313 -865
-158 -357 -251 -611 -337 -925 -80 -296 -153 -709 -134 -763 13 -37 55 -50 87
-29 19 13 27 28 32 69 65 519 219 1045 465 1593 216 480 306 733 325 916 7 64
6 67 -20 87 -34 27 -46 27 -75 4z"/>
</g>
</svg>
